<svg version="1.1" id="Layer_1" xmlns="http://www.w3.org/2000/svg" xmlns:xlink="http://www.w3.org/1999/xlink" x="0px" y="0px"
	 width="100%" viewBox="0 0 768 768" enable-background="new 0 0 768 768" xml:space="preserve">
<path fill="#FFFFFF" opacity="1.000000" stroke="none" 
	d="
M430.000000,769.000000 
	C286.666656,769.000000 143.833328,769.000000 1.000000,769.000000 
	C1.000000,513.000000 1.000000,257.000000 1.000000,1.000000 
	C257.000000,1.000000 513.000000,1.000000 769.000000,1.000000 
	C769.000000,257.000000 769.000000,513.000000 769.000000,769.000000 
	C656.166687,769.000000 543.333313,769.000000 430.000000,769.000000 
M522.722595,94.716476 
	C504.753632,88.072945 487.106812,80.312683 468.748901,75.017548 
	C430.122955,63.876301 390.569458,61.620712 350.582184,65.683403 
	C315.324890,69.265511 281.673584,78.646004 249.643906,93.572151 
	C213.089722,110.606781 180.780899,133.702408 152.926010,163.006210 
	C127.224602,190.044510 106.675018,220.416260 91.463425,254.520126 
	C75.301224,290.755249 66.126091,328.632904 64.223190,368.173615 
	C62.945278,394.727448 64.618858,421.133148 69.826027,447.341736 
	C77.455650,485.742859 91.617439,521.461731 112.141190,554.705688 
	C131.465103,586.006104 155.761642,613.024536 184.333176,636.039978 
	C205.710464,653.260132 229.148880,667.308167 254.290085,678.542297 
	C287.489105,693.377136 322.171967,702.453003 358.356934,705.071960 
	C374.575623,706.245789 390.967651,705.874939 407.242371,705.229675 
	C433.453979,704.190369 458.985352,698.865417 483.914856,690.779968 
	C517.189331,679.987854 547.779236,664.039978 575.970032,643.270447 
	C602.967102,623.380493 626.191711,599.806274 645.769653,572.724182 
	C667.859009,542.168030 683.935425,508.641846 694.193726,472.254822 
	C706.754700,427.700287 709.182617,382.581207 702.665527,336.931091 
	C698.601257,308.462158 690.405823,281.112640 678.763733,254.790054 
	C662.346985,217.671890 639.518677,184.935974 610.787964,156.415283 
	C585.203308,131.017639 555.958984,110.606537 522.722595,94.716476 
z"/>
<path fill="#0238FF" opacity="1.000000" stroke="none" 
	d="
M523.071655,94.852951 
	C555.958984,110.606537 585.203308,131.017639 610.787964,156.415283 
	C639.518677,184.935974 662.346985,217.671890 678.763733,254.790054 
	C690.405823,281.112640 698.601257,308.462158 702.665527,336.931091 
	C709.182617,382.581207 706.754700,427.700287 694.193726,472.254822 
	C683.935425,508.641846 667.859009,542.168030 645.769653,572.724182 
	C626.191711,599.806274 602.967102,623.380493 575.970032,643.270447 
	C547.779236,664.039978 517.189331,679.987854 483.914856,690.779968 
	C458.985352,698.865417 433.453979,704.190369 407.242371,705.229675 
	C390.967651,705.874939 374.575623,706.245789 358.356934,705.071960 
	C322.171967,702.453003 287.489105,693.377136 254.290085,678.542297 
	C229.148880,667.308167 205.710464,653.260132 184.333176,636.039978 
	C155.761642,613.024536 131.465103,586.006104 112.141190,554.705688 
	C91.617439,521.461731 77.455650,485.742859 69.826027,447.341736 
	C64.618858,421.133148 62.945278,394.727448 64.223190,368.173615 
	C66.126091,328.632904 75.301224,290.755249 91.463425,254.520126 
	C106.675018,220.416260 127.224602,190.044510 152.926010,163.006210 
	C180.780899,133.702408 213.089722,110.606781 249.643906,93.572151 
	C281.673584,78.646004 315.324890,69.265511 350.582184,65.683403 
	C390.569458,61.620712 430.122955,63.876301 468.748901,75.017548 
	C487.106812,80.312683 504.753632,88.072945 523.071655,94.852951 
M668.004700,297.507935 
	C666.439209,293.032928 664.969360,288.521729 663.292969,284.088654 
	C650.578186,250.465347 632.358521,220.188507 608.678528,193.092072 
	C580.345581,160.671341 546.628235,135.512146 507.541321,117.697281 
	C475.137299,102.928329 441.114441,94.398384 405.458588,91.814110 
	C383.272766,90.206116 361.278412,91.014839 339.425018,94.230522 
	C311.778534,98.298645 285.152405,106.276077 259.716339,118.013245 
	C216.683395,137.870270 180.292664,166.323669 150.694839,203.249817 
	C125.615601,234.538589 107.518204,269.576172 96.710014,308.272491 
	C91.825577,325.760132 88.015945,343.463196 87.013687,361.648865 
	C86.224648,375.965759 85.668373,390.295502 84.972290,405.410400 
	C88.946648,403.495636 91.428246,402.291260 93.917198,401.102264 
	C116.216293,390.449951 138.645569,390.575256 160.279633,402.171692 
	C172.780426,408.872406 185.303314,413.631775 199.610092,413.204163 
	C208.203018,412.947357 216.389511,411.316254 224.235992,407.734222 
	C233.108612,403.683777 241.862640,399.205536 251.065903,396.086792 
	C264.878510,391.406189 278.986206,392.051300 292.567322,397.384979 
	C301.642700,400.949188 310.232147,405.761444 319.334534,409.242645 
	C326.440796,411.960480 333.987030,413.595703 342.801636,412.850891 
	C339.451782,406.605682 336.478424,401.062317 333.569641,395.639435 
	C323.789917,396.259949 315.166321,393.185913 306.672516,389.545990 
	C297.972687,385.817749 289.440552,381.591064 280.498535,378.582611 
	C276.362091,377.190918 274.101440,375.273102 272.293091,371.528168 
	C263.547729,353.417297 266.599121,327.481659 282.807526,311.724152 
	C295.989929,298.908478 311.205841,294.325348 328.432678,296.583038 
	C354.940643,300.057098 373.349152,322.899078 373.236420,349.032928 
	C373.168732,364.730347 366.487671,377.831482 354.805206,388.060120 
	C358.698883,393.577393 362.862274,398.769653 366.186737,404.452698 
	C368.181061,407.861877 370.516083,407.336609 372.672302,405.982605 
	C381.840912,400.225220 391.679688,397.004578 402.428680,395.316833 
	C417.702667,392.918549 432.173889,394.753937 445.831299,401.482758 
	C457.209839,407.088806 468.362122,412.777710 481.375702,413.498138 
	C494.467621,414.222931 507.003876,411.694580 518.150146,405.214142 
	C535.841797,394.928223 554.442261,391.332825 574.093140,396.316437 
	C584.182251,398.875092 593.856201,403.398834 603.385925,407.759644 
	C618.609375,414.725830 634.108948,415.569153 649.649170,410.102264 
	C659.276428,406.715515 668.167297,401.249969 677.772583,397.780090 
	C682.152771,396.197693 682.987000,394.191437 682.666992,390.329132 
	C681.407593,375.130585 681.154785,359.777039 678.756348,344.764130 
	C676.255737,329.111969 671.713867,313.785889 668.004700,297.507935 
M604.145935,468.337158 
	C623.230103,474.714325 641.659546,473.306091 659.469055,463.822937 
	C663.837524,461.496857 668.416992,459.568268 672.798767,457.265320 
	C673.982117,456.643402 675.434204,455.453278 675.677124,454.296021 
	C677.302795,446.552277 678.634705,438.746948 680.338196,429.454651 
	C673.663330,432.758911 668.156616,435.296692 662.824951,438.160339 
	C648.191772,446.019775 632.709351,448.658325 616.248352,446.617279 
	C604.455383,445.155029 594.258911,439.770538 583.808594,434.716827 
	C562.918823,424.614746 541.822876,425.494995 521.772278,436.463562 
	C495.989685,450.567780 470.646454,451.118805 444.887207,437.129791 
	C422.685730,425.072906 400.149139,424.568634 377.877411,436.399445 
	C368.831360,441.204712 359.785919,445.293152 349.615784,446.603149 
	C332.531616,448.803741 316.495331,446.214172 301.316071,437.458435 
	C279.084351,424.634613 256.183289,424.185333 233.623627,436.553345 
	C224.471893,441.570709 215.145523,445.520905 204.846054,446.801117 
	C188.803635,448.795044 173.014709,447.015442 159.163132,438.550842 
	C144.843933,429.800507 129.798630,426.646637 113.500710,428.417206 
	C104.746674,429.368195 96.492348,432.176422 89.002869,436.989319 
	C90.448227,444.250122 91.829720,451.190125 93.250771,458.328827 
	C94.817947,457.857727 96.089554,457.512695 97.336784,457.094879 
	C116.613846,450.637207 135.816757,450.453705 154.002991,460.015839 
	C168.670120,467.727600 183.386673,473.626038 200.372040,472.079163 
	C209.952927,471.206665 218.962570,468.832733 227.195663,463.893738 
	C247.240051,451.869110 268.462158,449.417114 290.505859,456.781219 
	C298.398285,459.417816 305.511658,464.308960 313.306366,467.330750 
	C333.440033,475.135986 353.063446,474.104828 372.124847,463.293121 
	C386.877014,454.925629 402.697754,451.505157 419.821777,453.492004 
	C432.352753,454.945953 443.018280,460.630127 454.125244,465.765747 
	C474.830505,475.339386 495.516388,474.646210 515.559937,463.563385 
	C538.111450,451.093811 561.238708,449.259399 585.073242,459.324066 
	C591.304443,461.955383 597.318115,465.101990 604.145935,468.337158 
M514.778381,528.284790 
	C539.206787,514.003784 564.316162,512.510559 589.451843,525.701599 
	C605.611328,534.181946 622.158264,538.275818 640.218506,534.914734 
	C642.520142,534.486389 645.726746,533.598145 646.637756,531.910217 
	C651.453674,522.987244 655.668762,513.739990 660.407104,503.954926 
	C658.789490,504.289978 658.120605,504.313538 657.550598,504.563080 
	C633.986145,514.879883 611.102539,513.315002 588.620300,501.059845 
	C566.411743,488.953949 543.749268,488.479065 521.517212,500.589172 
	C496.169495,514.396484 471.002289,515.210571 445.566071,501.477966 
	C422.987579,489.288177 400.201569,488.325836 377.530579,500.620728 
	C368.523193,505.505554 359.397644,509.497772 349.246063,510.686066 
	C332.195679,512.681885 316.175262,510.093628 300.950104,501.310608 
	C278.768402,488.514465 255.858963,488.259796 233.356461,500.726135 
	C224.387207,505.695068 215.190659,509.596771 205.047821,510.733704 
	C188.192337,512.623047 172.126358,510.453766 157.246872,501.371338 
	C140.889908,491.386993 123.181145,489.827332 104.219017,494.139648 
	C106.958794,500.842285 109.568619,507.036835 112.014236,513.295532 
	C113.126244,516.141296 114.919044,516.915283 117.982986,517.134949 
	C127.014076,517.782410 136.330002,517.870117 144.918350,520.328918 
	C153.657043,522.830811 161.415314,528.577576 170.039963,531.693726 
	C189.834564,538.845642 209.295593,538.246216 227.939468,527.339539 
	C247.085602,516.139038 267.567749,513.646362 288.645782,520.182312 
	C297.357788,522.883789 305.150421,528.435303 313.763153,531.594910 
	C333.547272,538.852600 353.024139,538.233826 371.713257,527.516052 
	C382.926361,521.085571 394.957489,517.420410 407.983734,516.966064 
	C423.518829,516.424316 437.510284,521.051331 451.093628,528.204651 
	C471.889618,539.156250 493.034058,538.846436 514.778381,528.284790 
M487.703674,600.004883 
	C497.737305,599.255310 507.024841,596.284424 515.875854,591.425903 
	C539.265503,578.587036 563.213928,576.916077 587.611755,588.645203 
	C592.041260,590.774597 596.434998,592.978699 600.953735,595.201721 
	C606.719666,588.495972 612.243225,582.072144 617.128296,576.390869 
	C607.032837,572.323242 597.017822,569.044006 587.695251,564.380737 
	C565.511169,553.283997 543.468872,552.613098 521.699707,564.567383 
	C495.631622,578.882385 469.986786,578.801697 443.887115,564.762634 
	C420.421265,552.140259 397.457916,553.524109 373.999634,566.420654 
	C350.912476,579.113220 326.637207,579.331421 303.314423,566.334229 
	C280.323730,553.522095 257.267761,551.685181 233.951950,564.354736 
	C224.827286,569.312988 215.627991,573.396973 205.335709,574.673889 
	C188.445221,576.769531 172.444153,574.421448 157.487198,565.617859 
	C151.466690,562.074219 144.728775,559.749512 137.092239,556.319763 
	C138.160416,558.632690 138.405701,559.611389 138.976624,560.332153 
	C146.480209,569.805786 153.942856,579.314636 161.625702,588.641724 
	C163.675629,591.130371 166.081833,593.862000 168.924789,595.074524 
	C188.403748,603.382507 208.106766,602.708313 226.298172,592.390747 
	C252.982407,577.256287 278.888763,576.840637 305.657410,591.661194 
	C327.511292,603.760742 349.749756,603.652954 371.738922,591.463623 
	C382.590424,585.448303 394.084473,581.554688 406.563354,580.964661 
	C421.450439,580.260742 435.340454,583.665588 448.354401,590.946655 
	C460.283386,597.620728 473.004333,601.196472 487.703674,600.004883 
M398.606567,645.707031 
	C416.568604,643.158813 433.406982,646.333313 449.198181,655.348877 
	C465.583923,664.703918 483.111298,666.813232 501.061371,661.485840 
	C509.353363,659.024902 516.820618,653.886169 525.034119,651.033630 
	C534.943176,647.592224 543.722900,642.388550 552.169067,636.440491 
	C558.430420,632.031067 564.539124,627.404907 571.031311,622.643921 
	C569.843689,621.884583 569.464417,621.466858 569.023010,621.385132 
	C552.086853,618.252808 536.065674,620.507629 520.846802,628.913330 
	C495.701935,642.801331 470.408081,643.065002 445.033417,629.211853 
	C422.972687,617.167969 400.464294,616.420105 378.191162,628.255615 
	C368.908600,633.188049 359.637451,637.484924 349.139832,638.691101 
	C333.181183,640.524658 317.703400,639.096130 303.670563,630.598083 
	C288.007538,621.112915 271.045319,616.941589 253.421844,621.401550 
	C240.752808,624.607727 228.888245,630.992798 215.356918,636.491272 
	C223.157669,641.231628 229.564453,645.258606 236.134796,648.998169 
	C237.363358,649.697388 239.407211,649.721619 240.805069,649.252869 
	C263.716461,641.569031 285.120605,644.046021 306.363983,656.058716 
	C326.859375,667.648315 348.597534,667.557312 369.687561,656.634705 
	C378.694000,651.970154 387.681366,647.610229 398.606567,645.707031 
M296.236694,366.181610 
	C300.236633,369.575867 303.767120,373.917847 308.329010,376.177734 
	C319.700470,381.810944 330.859283,379.815094 340.243103,371.631439 
	C349.765961,363.326508 352.872498,352.564880 349.337677,340.148621 
	C346.174744,329.038483 335.580139,319.615875 324.117462,318.405029 
	C311.739685,317.097412 301.988037,322.105927 295.511871,332.499603 
	C288.735962,343.374329 288.649963,354.602142 296.236694,366.181610 
z"/>
<path fill="#FEFEFF" opacity="1.000000" stroke="none" 
	d="
M668.034546,297.912598 
	C671.713867,313.785889 676.255737,329.111969 678.756348,344.764130 
	C681.154785,359.777039 681.407593,375.130585 682.666992,390.329132 
	C682.987000,394.191437 682.152771,396.197693 677.772583,397.780090 
	C668.167297,401.249969 659.276428,406.715515 649.649170,410.102264 
	C634.108948,415.569153 618.609375,414.725830 603.385925,407.759644 
	C593.856201,403.398834 584.182251,398.875092 574.093140,396.316437 
	C554.442261,391.332825 535.841797,394.928223 518.150146,405.214142 
	C507.003876,411.694580 494.467621,414.222931 481.375702,413.498138 
	C468.362122,412.777710 457.209839,407.088806 445.831299,401.482758 
	C432.173889,394.753937 417.702667,392.918549 402.428680,395.316833 
	C391.679688,397.004578 381.840912,400.225220 372.672302,405.982605 
	C370.516083,407.336609 368.181061,407.861877 366.186737,404.452698 
	C362.862274,398.769653 358.698883,393.577393 354.805206,388.060120 
	C366.487671,377.831482 373.168732,364.730347 373.236420,349.032928 
	C373.349152,322.899078 354.940643,300.057098 328.432678,296.583038 
	C311.205841,294.325348 295.989929,298.908478 282.807526,311.724152 
	C266.599121,327.481659 263.547729,353.417297 272.293091,371.528168 
	C274.101440,375.273102 276.362091,377.190918 280.498535,378.582611 
	C289.440552,381.591064 297.972687,385.817749 306.672516,389.545990 
	C315.166321,393.185913 323.789917,396.259949 333.569641,395.639435 
	C336.478424,401.062317 339.451782,406.605682 342.801636,412.850891 
	C333.987030,413.595703 326.440796,411.960480 319.334534,409.242645 
	C310.232147,405.761444 301.642700,400.949188 292.567322,397.384979 
	C278.986206,392.051300 264.878510,391.406189 251.065903,396.086792 
	C241.862640,399.205536 233.108612,403.683777 224.235992,407.734222 
	C216.389511,411.316254 208.203018,412.947357 199.610092,413.204163 
	C185.303314,413.631775 172.780426,408.872406 160.279633,402.171692 
	C138.645569,390.575256 116.216293,390.449951 93.917198,401.102264 
	C91.428246,402.291260 88.946648,403.495636 84.972290,405.410400 
	C85.668373,390.295502 86.224648,375.965759 87.013687,361.648865 
	C88.015945,343.463196 91.825577,325.760132 96.710014,308.272491 
	C107.518204,269.576172 125.615601,234.538589 150.694839,203.249817 
	C180.292664,166.323669 216.683395,137.870270 259.716339,118.013245 
	C285.152405,106.276077 311.778534,98.298645 339.425018,94.230522 
	C361.278412,91.014839 383.272766,90.206116 405.458588,91.814110 
	C441.114441,94.398384 475.137299,102.928329 507.541321,117.697281 
	C546.628235,135.512146 580.345581,160.671341 608.678528,193.092072 
	C632.358521,220.188507 650.578186,250.465347 663.292969,284.088654 
	C664.969360,288.521729 666.439209,293.032928 668.034546,297.912598 
M414.123322,376.779694 
	C414.720398,376.754791 415.317505,376.729919 415.914581,376.705048 
	C415.569458,376.255432 415.224335,375.805847 414.360504,374.902161 
	C408.732147,370.123657 406.935608,363.891083 406.993103,356.715698 
	C407.138214,338.591400 407.015839,320.465057 407.127777,302.340332 
	C407.151184,298.554230 406.026672,296.832001 401.899597,297.275635 
	C398.277069,297.665039 394.570374,297.525513 390.917877,297.318787 
	C386.128998,297.047729 384.543549,299.214996 384.586212,303.843964 
	C384.748260,321.433044 384.636383,339.024475 384.677124,356.614899 
	C384.695160,364.409973 385.379181,372.081451 389.109680,378.317688 
	C397.683350,377.604797 405.714905,376.936981 414.123322,376.779694 
M533.967468,333.485992 
	C533.967468,348.301666 533.967468,363.117340 533.967468,378.037567 
	C540.339233,377.629181 546.280762,377.037415 552.229614,376.951019 
	C555.479065,376.903778 556.454529,375.888092 556.424316,372.633514 
	C556.272949,356.312775 556.355042,339.989838 556.355103,323.667694 
	C556.355103,321.219208 556.355103,318.770721 556.355103,316.406952 
	C584.460388,312.767761 596.652893,325.620819 599.348938,342.383118 
	C602.088135,359.414215 592.248169,372.470032 572.197388,377.624237 
	C581.487488,381.537750 590.777588,385.451233 600.489685,389.542511 
	C614.391968,380.151154 621.907715,367.002747 622.630676,349.316589 
	C623.665710,323.994080 604.409790,300.749481 580.094727,298.190521 
	C567.263794,296.840210 554.212158,297.397614 541.261902,297.460266 
	C535.739990,297.486969 533.827393,300.096924 533.821350,305.781982 
	C533.811890,314.687531 533.776428,323.593109 533.967468,333.485992 
M181.421555,336.500244 
	C181.421967,325.348877 181.331863,314.196381 181.471039,303.046753 
	C181.520920,299.050690 179.931488,297.229431 175.943741,297.327240 
	C172.447083,297.413025 168.946213,297.310211 165.447983,297.353485 
	C159.322922,297.429260 158.483353,298.176849 158.468750,304.268311 
	C158.411987,327.950653 158.764282,351.640961 158.212784,375.310822 
	C158.044830,382.519470 160.191910,386.448395 166.707260,389.266266 
	C180.633621,395.289429 194.790741,398.668274 209.888916,395.053436 
	C221.993332,392.155365 221.861389,392.029053 221.708298,379.632660 
	C221.653015,375.155701 219.623856,373.313782 215.352539,373.335083 
	C207.855377,373.372498 200.357880,373.345184 192.860535,373.345032 
	C189.120544,373.344971 185.380569,373.345032 181.421219,373.345032 
	C181.421219,360.812592 181.421219,349.156433 181.421555,336.500244 
M504.350159,297.360748 
	C502.019684,297.360748 499.689209,297.359558 497.358734,297.360931 
	C490.651093,297.364868 490.647003,297.365295 490.646606,304.214813 
	C490.644928,332.679779 490.645935,361.144775 490.645966,389.609741 
	C490.645966,391.387207 490.645966,393.164673 490.645966,396.626556 
	C497.492126,394.586670 503.370056,392.839050 509.245483,391.083099 
	C512.214905,390.195587 513.094421,388.292175 513.078125,385.144165 
	C512.940674,358.677429 513.031189,332.209595 512.952454,305.742401 
	C512.944397,303.029785 512.277466,300.319153 511.883453,297.360901 
	C509.256439,297.360901 507.274048,297.360901 504.350159,297.360748 
M434.583405,377.994202 
	C433.504852,378.452850 432.426300,378.911499 431.435089,379.333008 
	C439.093384,382.866730 446.670563,386.144043 454.023193,389.865021 
	C456.906647,391.324310 459.148987,390.742798 460.273193,388.415497 
	C463.242462,382.268768 467.673706,375.969025 467.991211,369.555328 
	C469.121460,346.724670 468.842346,323.821198 468.826172,300.945465 
	C468.825317,299.740723 466.443909,297.689117 464.980774,297.499756 
	C461.218597,297.012817 457.349365,297.333984 453.523193,297.364685 
	C447.632446,297.411957 446.990021,298.065399 446.985718,303.984497 
	C446.972504,322.258789 446.969177,340.533081 446.956818,358.807373 
	C446.950958,367.511841 443.600983,374.166168 434.583405,377.994202 
M231.700897,359.512970 
	C231.700897,367.542114 231.700897,375.571259 231.700897,383.394958 
	C238.472229,381.600250 245.016373,380.038055 251.415482,378.016785 
	C252.620956,377.636047 254.021210,375.429749 254.027847,374.059540 
	C254.140564,350.813751 253.998032,327.566925 254.040359,304.320526 
	C254.048904,299.628967 251.577469,297.749023 247.386749,297.395630 
	C245.568054,297.242310 243.702087,297.555389 241.899002,297.328094 
	C234.360962,296.377777 231.466431,299.547394 231.640839,307.746521 
	C232.000519,324.656860 231.694946,341.581390 231.700897,359.512970 
z"/>
<path fill="#FBFBFE" opacity="1.000000" stroke="none" 
	d="
M603.788818,468.174530 
	C597.318115,465.101990 591.304443,461.955383 585.073242,459.324066 
	C561.238708,449.259399 538.111450,451.093811 515.559937,463.563385 
	C495.516388,474.646210 474.830505,475.339386 454.125244,465.765747 
	C443.018280,460.630127 432.352753,454.945953 419.821777,453.492004 
	C402.697754,451.505157 386.877014,454.925629 372.124847,463.293121 
	C353.063446,474.104828 333.440033,475.135986 313.306366,467.330750 
	C305.511658,464.308960 298.398285,459.417816 290.505859,456.781219 
	C268.462158,449.417114 247.240051,451.869110 227.195663,463.893738 
	C218.962570,468.832733 209.952927,471.206665 200.372040,472.079163 
	C183.386673,473.626038 168.670120,467.727600 154.002991,460.015839 
	C135.816757,450.453705 116.613846,450.637207 97.336784,457.094879 
	C96.089554,457.512695 94.817947,457.857727 93.250771,458.328827 
	C91.829720,451.190125 90.448227,444.250122 89.002869,436.989319 
	C96.492348,432.176422 104.746674,429.368195 113.500710,428.417206 
	C129.798630,426.646637 144.843933,429.800507 159.163132,438.550842 
	C173.014709,447.015442 188.803635,448.795044 204.846054,446.801117 
	C215.145523,445.520905 224.471893,441.570709 233.623627,436.553345 
	C256.183289,424.185333 279.084351,424.634613 301.316071,437.458435 
	C316.495331,446.214172 332.531616,448.803741 349.615784,446.603149 
	C359.785919,445.293152 368.831360,441.204712 377.877411,436.399445 
	C400.149139,424.568634 422.685730,425.072906 444.887207,437.129791 
	C470.646454,451.118805 495.989685,450.567780 521.772278,436.463562 
	C541.822876,425.494995 562.918823,424.614746 583.808594,434.716827 
	C594.258911,439.770538 604.455383,445.155029 616.248352,446.617279 
	C632.709351,448.658325 648.191772,446.019775 662.824951,438.160339 
	C668.156616,435.296692 673.663330,432.758911 680.338196,429.454651 
	C678.634705,438.746948 677.302795,446.552277 675.677124,454.296021 
	C675.434204,455.453278 673.982117,456.643402 672.798767,457.265320 
	C668.416992,459.568268 663.837524,461.496857 659.469055,463.822937 
	C641.659546,473.306091 623.230103,474.714325 603.788818,468.174530 
z"/>
<path fill="#FAFBFE" opacity="1.000000" stroke="none" 
	d="
M514.443481,528.453918 
	C493.034058,538.846436 471.889618,539.156250 451.093628,528.204651 
	C437.510284,521.051331 423.518829,516.424316 407.983734,516.966064 
	C394.957489,517.420410 382.926361,521.085571 371.713257,527.516052 
	C353.024139,538.233826 333.547272,538.852600 313.763153,531.594910 
	C305.150421,528.435303 297.357788,522.883789 288.645782,520.182312 
	C267.567749,513.646362 247.085602,516.139038 227.939468,527.339539 
	C209.295593,538.246216 189.834564,538.845642 170.039963,531.693726 
	C161.415314,528.577576 153.657043,522.830811 144.918350,520.328918 
	C136.330002,517.870117 127.014076,517.782410 117.982986,517.134949 
	C114.919044,516.915283 113.126244,516.141296 112.014236,513.295532 
	C109.568619,507.036835 106.958794,500.842285 104.219017,494.139648 
	C123.181145,489.827332 140.889908,491.386993 157.246872,501.371338 
	C172.126358,510.453766 188.192337,512.623047 205.047821,510.733704 
	C215.190659,509.596771 224.387207,505.695068 233.356461,500.726135 
	C255.858963,488.259796 278.768402,488.514465 300.950104,501.310608 
	C316.175262,510.093628 332.195679,512.681885 349.246063,510.686066 
	C359.397644,509.497772 368.523193,505.505554 377.530579,500.620728 
	C400.201569,488.325836 422.987579,489.288177 445.566071,501.477966 
	C471.002289,515.210571 496.169495,514.396484 521.517212,500.589172 
	C543.749268,488.479065 566.411743,488.953949 588.620300,501.059845 
	C611.102539,513.315002 633.986145,514.879883 657.550598,504.563080 
	C658.120605,504.313538 658.789490,504.289978 660.407104,503.954926 
	C655.668762,513.739990 651.453674,522.987244 646.637756,531.910217 
	C645.726746,533.598145 642.520142,534.486389 640.218506,534.914734 
	C622.158264,538.275818 605.611328,534.181946 589.451843,525.701599 
	C564.316162,512.510559 539.206787,514.003784 514.443481,528.453918 
z"/>
<path fill="#FAFAFD" opacity="1.000000" stroke="none" 
	d="
M487.259827,600.007324 
	C473.004333,601.196472 460.283386,597.620728 448.354401,590.946655 
	C435.340454,583.665588 421.450439,580.260742 406.563354,580.964661 
	C394.084473,581.554688 382.590424,585.448303 371.738922,591.463623 
	C349.749756,603.652954 327.511292,603.760742 305.657410,591.661194 
	C278.888763,576.840637 252.982407,577.256287 226.298172,592.390747 
	C208.106766,602.708313 188.403748,603.382507 168.924789,595.074524 
	C166.081833,593.862000 163.675629,591.130371 161.625702,588.641724 
	C153.942856,579.314636 146.480209,569.805786 138.976624,560.332153 
	C138.405701,559.611389 138.160416,558.632690 137.092239,556.319763 
	C144.728775,559.749512 151.466690,562.074219 157.487198,565.617859 
	C172.444153,574.421448 188.445221,576.769531 205.335709,574.673889 
	C215.627991,573.396973 224.827286,569.312988 233.951950,564.354736 
	C257.267761,551.685181 280.323730,553.522095 303.314423,566.334229 
	C326.637207,579.331421 350.912476,579.113220 373.999634,566.420654 
	C397.457916,553.524109 420.421265,552.140259 443.887115,564.762634 
	C469.986786,578.801697 495.631622,578.882385 521.699707,564.567383 
	C543.468872,552.613098 565.511169,553.283997 587.695251,564.380737 
	C597.017822,569.044006 607.032837,572.323242 617.128296,576.390869 
	C612.243225,582.072144 606.719666,588.495972 600.953735,595.201721 
	C596.434998,592.978699 592.041260,590.774597 587.611755,588.645203 
	C563.213928,576.916077 539.265503,578.587036 515.875854,591.425903 
	C507.024841,596.284424 497.737305,599.255310 487.259827,600.007324 
z"/>
<path fill="#F9FAFD" opacity="1.000000" stroke="none" 
	d="
M398.184753,645.817993 
	C387.681366,647.610229 378.694000,651.970154 369.687561,656.634705 
	C348.597534,667.557312 326.859375,667.648315 306.363983,656.058716 
	C285.120605,644.046021 263.716461,641.569031 240.805069,649.252869 
	C239.407211,649.721619 237.363358,649.697388 236.134796,648.998169 
	C229.564453,645.258606 223.157669,641.231628 215.356918,636.491272 
	C228.888245,630.992798 240.752808,624.607727 253.421844,621.401550 
	C271.045319,616.941589 288.007538,621.112915 303.670563,630.598083 
	C317.703400,639.096130 333.181183,640.524658 349.139832,638.691101 
	C359.637451,637.484924 368.908600,633.188049 378.191162,628.255615 
	C400.464294,616.420105 422.972687,617.167969 445.033417,629.211853 
	C470.408081,643.065002 495.701935,642.801331 520.846802,628.913330 
	C536.065674,620.507629 552.086853,618.252808 569.023010,621.385132 
	C569.464417,621.466858 569.843689,621.884583 571.031311,622.643921 
	C564.539124,627.404907 558.430420,632.031067 552.169067,636.440491 
	C543.722900,642.388550 534.943176,647.592224 525.034119,651.033630 
	C516.820618,653.886169 509.353363,659.024902 501.061371,661.485840 
	C483.111298,666.813232 465.583923,664.703918 449.198181,655.348877 
	C433.406982,646.333313 416.568604,643.158813 398.184753,645.817993 
z"/>
<path fill="#FCFCFE" opacity="1.000000" stroke="none" 
	d="
M296.107727,365.841309 
	C288.649963,354.602142 288.735962,343.374329 295.511871,332.499603 
	C301.988037,322.105927 311.739685,317.097412 324.117462,318.405029 
	C335.580139,319.615875 346.174744,329.038483 349.337677,340.148621 
	C352.872498,352.564880 349.765961,363.326508 340.243103,371.631439 
	C330.859283,379.815094 319.700470,381.810944 308.329010,376.177734 
	C303.767120,373.917847 300.236633,369.575867 296.107727,365.841309 
z"/>
<path fill="#0239FF" opacity="1.000000" stroke="none" 
	d="
M533.859741,332.992310 
	C533.776428,323.593109 533.811890,314.687531 533.821350,305.781982 
	C533.827393,300.096924 535.739990,297.486969 541.261902,297.460266 
	C554.212158,297.397614 567.263794,296.840210 580.094727,298.190521 
	C604.409790,300.749481 623.665710,323.994080 622.630676,349.316589 
	C621.907715,367.002747 614.391968,380.151154 600.489685,389.542511 
	C590.777588,385.451233 581.487488,381.537750 572.201172,377.625519 
	C592.248169,372.470032 602.088135,359.414215 599.348938,342.383118 
	C596.652893,325.620819 584.460388,312.767761 556.355103,316.406952 
	C556.355103,318.770721 556.355103,321.219208 556.355103,323.667694 
	C556.355042,339.989838 556.272949,356.312775 556.424316,372.633514 
	C556.454529,375.888092 555.479065,376.903778 552.229614,376.951019 
	C546.280762,377.037415 540.339233,377.629181 533.967468,378.037567 
	C533.967468,363.117340 533.967468,348.301666 533.859741,332.992310 
z"/>
<path fill="#073CFF" opacity="1.000000" stroke="none" 
	d="
M181.421387,337.000244 
	C181.421219,349.156433 181.421219,360.812592 181.421219,373.345032 
	C185.380569,373.345032 189.120544,373.344971 192.860535,373.345032 
	C200.357880,373.345184 207.855377,373.372498 215.352539,373.335083 
	C219.623856,373.313782 221.653015,375.155701 221.708298,379.632660 
	C221.861389,392.029053 221.993332,392.155365 209.888916,395.053436 
	C194.790741,398.668274 180.633621,395.289429 166.707260,389.266266 
	C160.191910,386.448395 158.044830,382.519470 158.212784,375.310822 
	C158.764282,351.640961 158.411987,327.950653 158.468750,304.268311 
	C158.483353,298.176849 159.322922,297.429260 165.447983,297.353485 
	C168.946213,297.310211 172.447083,297.413025 175.943741,297.327240 
	C179.931488,297.229431 181.520920,299.050690 181.471039,303.046753 
	C181.331863,314.196381 181.421967,325.348877 181.421387,337.000244 
z"/>
<path fill="#0239FF" opacity="1.000000" stroke="none" 
	d="
M504.820923,297.360840 
	C507.274048,297.360901 509.256439,297.360901 511.883453,297.360901 
	C512.277466,300.319153 512.944397,303.029785 512.952454,305.742401 
	C513.031189,332.209595 512.940674,358.677429 513.078125,385.144165 
	C513.094421,388.292175 512.214905,390.195587 509.245483,391.083099 
	C503.370056,392.839050 497.492126,394.586670 490.645966,396.626556 
	C490.645966,393.164673 490.645966,391.387207 490.645966,389.609741 
	C490.645935,361.144775 490.644928,332.679779 490.646606,304.214813 
	C490.647003,297.365295 490.651093,297.364868 497.358734,297.360931 
	C499.689209,297.359558 502.019684,297.360748 504.820923,297.360840 
z"/>
<path fill="#0239FF" opacity="1.000000" stroke="none" 
	d="
M434.938416,377.880737 
	C443.600983,374.166168 446.950958,367.511841 446.956818,358.807373 
	C446.969177,340.533081 446.972504,322.258789 446.985718,303.984497 
	C446.990021,298.065399 447.632446,297.411957 453.523193,297.364685 
	C457.349365,297.333984 461.218597,297.012817 464.980774,297.499756 
	C466.443909,297.689117 468.825317,299.740723 468.826172,300.945465 
	C468.842346,323.821198 469.121460,346.724670 467.991211,369.555328 
	C467.673706,375.969025 463.242462,382.268768 460.273193,388.415497 
	C459.148987,390.742798 456.906647,391.324310 454.023193,389.865021 
	C446.670563,386.144043 439.093384,382.866730 431.435089,379.333008 
	C432.426300,378.911499 433.504852,378.452850 434.938416,377.880737 
z"/>
<path fill="#0239FF" opacity="1.000000" stroke="none" 
	d="
M231.681976,359.006531 
	C231.694946,341.581390 232.000519,324.656860 231.640839,307.746521 
	C231.466431,299.547394 234.360962,296.377777 241.899002,297.328094 
	C243.702087,297.555389 245.568054,297.242310 247.386749,297.395630 
	C251.577469,297.749023 254.048904,299.628967 254.040359,304.320526 
	C253.998032,327.566925 254.140564,350.813751 254.027847,374.059540 
	C254.021210,375.429749 252.620956,377.636047 251.415482,378.016785 
	C245.016373,380.038055 238.472229,381.600250 231.700897,383.394958 
	C231.700897,375.571259 231.700897,367.542114 231.681976,359.006531 
z"/>
<path fill="#0239FF" opacity="1.000000" stroke="none" 
	d="
M413.746490,376.269165 
	C405.714905,376.936981 397.683350,377.604797 389.109680,378.317688 
	C385.379181,372.081451 384.695160,364.409973 384.677124,356.614899 
	C384.636383,339.024475 384.748260,321.433044 384.586212,303.843964 
	C384.543549,299.214996 386.128998,297.047729 390.917877,297.318787 
	C394.570374,297.525513 398.277069,297.665039 401.899597,297.275635 
	C406.026672,296.832001 407.151184,298.554230 407.127777,302.340332 
	C407.015839,320.465057 407.138214,338.591400 406.993103,356.715698 
	C406.935608,363.891083 408.732147,370.123657 414.325806,375.343933 
	C414.109558,375.946869 413.928009,376.108002 413.746490,376.269165 
z"/>
<path fill="#0239FF" opacity="1.000000" stroke="none" 
	d="
M414.585175,375.570984 
	C415.224335,375.805847 415.569458,376.255432 415.914581,376.705048 
	C415.317505,376.729919 414.720398,376.754791 413.934906,376.524414 
	C413.928009,376.108002 414.109558,375.946869 414.585175,375.570984 
z"/>
</svg>