<svg version="1.1" id="Layer_1" xmlns="http://www.w3.org/2000/svg" xmlns:xlink="http://www.w3.org/1999/xlink" x="0px" y="0px"
	 width="100%" viewBox="0 0 225 225" enable-background="new 0 0 225 225" xml:space="preserve">
<path fill="#FEFFFE" opacity="1.000000" stroke="none" 
	d="
M226.000000,109.000000 
	C226.000000,148.333328 226.000000,187.166672 226.000000,226.000000 
	C151.000000,226.000000 76.000000,226.000000 1.000000,226.000000 
	C1.000000,151.000000 1.000000,76.000000 1.000000,1.000000 
	C76.000000,1.000000 151.000000,1.000000 226.000000,1.000000 
	C226.000000,36.833332 226.000000,72.666664 226.000000,109.000000 
M61.342045,57.417042 
	C54.900124,59.570644 48.541821,62.040646 41.988464,63.772606 
	C37.187260,65.041496 35.424206,67.639900 34.852901,72.450546 
	C32.543934,91.893143 29.790295,111.282433 27.304089,130.704620 
	C25.241577,146.816940 23.323866,162.947800 21.160753,179.915161 
	C20.357117,186.128448 19.553478,192.341751 18.745098,198.591721 
	C20.544455,199.070145 21.796032,199.490585 23.081263,199.731522 
	C43.340359,203.529556 63.598999,207.330399 83.867615,211.077194 
	C102.499702,214.521439 121.143600,217.901794 140.374771,221.804611 
	C152.584473,219.220474 164.794159,216.636337 177.828949,214.110214 
	C187.845169,211.969391 197.861374,209.828568 208.196503,207.619568 
	C207.985153,205.324997 207.896515,203.358932 207.611557,201.421753 
	C204.108780,177.608948 200.569168,153.801590 197.055374,129.990402 
	C193.129990,103.390213 189.163345,76.795815 185.375366,50.176022 
	C184.875626,46.664017 183.090622,45.191795 179.950928,45.153408 
	C176.353729,45.109425 172.752060,45.431358 169.073441,44.888149 
	C166.557907,43.272129 163.861069,41.875179 161.574356,39.982681 
	C158.927887,37.792446 156.805573,34.962700 154.130493,32.815842 
	C152.808884,31.755203 150.756577,31.605017 148.237152,30.922745 
	C145.876694,31.234074 143.516235,31.545403 141.046265,31.130390 
	C140.692047,30.201431 140.390121,29.248425 139.975571,28.347227 
	C135.830063,19.335415 130.289291,12.133355 119.292839,11.206977 
	C117.471069,11.053505 115.868805,8.961035 114.045021,7.990202 
	C111.933357,6.866119 109.710037,5.201530 107.498627,5.142542 
	C96.868660,4.858992 88.159729,9.353535 81.189568,17.171680 
	C71.003403,28.597088 65.200371,42.202232 61.342045,57.417042 
z"/>
<path fill="#79B25A" opacity="1.000000" stroke="none" 
	d="
M139.782288,221.310303 
	C121.143600,217.901794 102.499702,214.521439 83.867615,211.077194 
	C63.598999,207.330399 43.340359,203.529556 23.081263,199.731522 
	C21.796032,199.490585 20.544455,199.070145 18.745098,198.591721 
	C19.553478,192.341751 20.357117,186.128448 21.589226,179.377960 
	C22.334515,178.290680 22.825548,177.775345 22.943142,177.185562 
	C28.659035,148.517670 34.292103,119.833069 40.100060,91.183922 
	C40.757977,87.938583 41.813923,84.484894 43.694721,81.847725 
	C46.194653,78.342430 49.790169,75.639107 52.724861,72.418015 
	C56.288002,68.507141 59.596783,64.365311 63.130714,60.426682 
	C64.598206,58.791142 66.363518,57.422825 68.205429,55.684528 
	C69.042244,55.265549 69.667030,55.095028 70.647964,54.848625 
	C76.411537,52.833504 81.818977,50.894264 87.611084,48.969025 
	C90.686760,48.313866 93.377762,47.644707 96.436325,46.912357 
	C103.567902,44.556934 110.331917,42.264702 117.475159,39.983879 
	C120.002670,39.306805 122.150955,38.618324 124.662460,37.891731 
	C128.274582,36.890217 131.523483,35.926811 135.125732,34.871498 
	C137.371307,33.805302 139.263535,32.831017 141.155777,31.856731 
	C143.516235,31.545403 145.876694,31.234074 148.638947,31.413843 
	C148.705109,34.197201 148.172165,36.480331 148.065567,38.783195 
	C147.328644,54.700844 146.700577,70.623489 145.997955,86.542778 
	C145.376068,100.632492 144.623978,114.716835 144.071518,128.809128 
	C143.297348,148.557159 142.767426,168.315247 141.912231,188.059464 
	C141.431717,199.153015 140.506912,210.227325 139.782288,221.310303 
M82.259705,109.009941 
	C84.931190,107.243568 87.548164,104.092003 90.284943,103.984276 
	C97.061867,103.717522 103.893593,104.843018 111.333199,105.461472 
	C113.621498,98.597633 116.275673,90.636353 119.067749,82.261421 
	C103.298546,77.355705 88.747643,78.289658 75.064423,87.011597 
	C58.750057,97.410690 49.249672,128.028732 72.197281,143.831070 
	C75.038620,145.787689 77.649696,148.288483 79.799240,150.989365 
	C82.814293,154.777771 83.635071,159.302216 80.766968,163.518555 
	C78.027763,167.545380 73.690704,167.925064 69.558022,166.247574 
	C64.075027,164.021973 58.832191,161.204712 53.096085,158.454666 
	C51.707859,163.114624 49.964622,168.093369 48.850338,173.209091 
	C48.490082,174.863068 49.206722,177.488098 50.414017,178.622086 
	C56.259159,184.112320 63.470631,187.116989 71.274864,188.644318 
	C89.131073,192.138885 104.384544,183.459579 108.741982,166.980347 
	C112.614822,152.333755 109.492821,139.611679 97.126396,129.923767 
	C93.064468,126.741631 88.885834,123.696228 84.969803,120.343887 
	C81.728943,117.569527 79.911835,114.125313 82.259705,109.009941 
z"/>
<path fill="#4C822A" opacity="1.000000" stroke="none" 
	d="
M140.078522,221.557465 
	C140.506912,210.227325 141.431717,199.153015 141.912231,188.059464 
	C142.767426,168.315247 143.297348,148.557159 144.071518,128.809128 
	C144.623978,114.716835 145.376068,100.632492 145.997955,86.542778 
	C146.700577,70.623489 147.328644,54.700844 148.065567,38.783195 
	C148.172165,36.480331 148.705109,34.197201 149.037827,31.473909 
	C150.756577,31.605017 152.808884,31.755203 154.130493,32.815842 
	C156.805573,34.962700 158.927887,37.792446 161.574356,39.982681 
	C163.861069,41.875179 166.557907,43.272129 169.068481,45.736195 
	C169.372726,53.374233 169.653778,60.165646 169.996460,66.953949 
	C170.982773,86.492638 171.983841,106.030594 172.999084,125.567802 
	C173.644226,137.983002 174.415634,150.392334 174.967819,162.811523 
	C175.727081,179.888168 176.332504,196.971649 177.003860,214.052200 
	C164.794159,216.636337 152.584473,219.220474 140.078522,221.557465 
z"/>
<path fill="#56932D" opacity="1.000000" stroke="none" 
	d="
M177.416412,214.081207 
	C176.332504,196.971649 175.727081,179.888168 174.967819,162.811523 
	C174.415634,150.392334 173.644226,137.983002 172.999084,125.567802 
	C171.983841,106.030594 170.982773,86.492638 169.996460,66.953949 
	C169.653778,60.165646 169.372726,53.374233 169.107941,46.089279 
	C172.752060,45.431358 176.353729,45.109425 179.950928,45.153408 
	C183.090622,45.191795 184.875626,46.664017 185.375366,50.176022 
	C189.163345,76.795815 193.129990,103.390213 197.055374,129.990402 
	C200.569168,153.801590 204.108780,177.608948 207.611557,201.421753 
	C207.896515,203.358932 207.985153,205.324997 208.196503,207.619568 
	C197.861374,209.828568 187.845169,211.969391 177.416412,214.081207 
z"/>
<path fill="#4D7C2E" opacity="1.000000" stroke="none" 
	d="
M124.299232,37.929840 
	C122.150955,38.618324 120.002670,39.306805 117.435516,39.528549 
	C116.385765,32.982948 115.754883,26.904081 115.013031,19.755966 
	C103.529869,26.725475 98.228180,35.781658 96.068764,46.975552 
	C93.377762,47.644707 90.686760,48.313866 87.651901,48.598045 
	C90.481667,34.260841 95.881012,21.645790 109.647110,13.235111 
	C98.902824,11.668276 91.991058,16.165205 86.262749,22.792835 
	C78.221260,32.096813 73.577003,43.199261 70.291824,54.924515 
	C69.667030,55.095028 69.042244,55.265549 67.817513,55.708145 
	C65.452133,56.320011 63.686691,56.659805 61.921249,56.999599 
	C65.200371,42.202232 71.003403,28.597088 81.189568,17.171680 
	C88.159729,9.353535 96.868660,4.858992 107.498627,5.142542 
	C109.710037,5.201530 111.933357,6.866119 114.045021,7.990202 
	C115.868805,8.961035 117.471069,11.053505 119.292839,11.206977 
	C130.289291,12.133355 135.830063,19.335415 139.975571,28.347227 
	C140.390121,29.248425 140.692047,30.201431 141.101013,31.493561 
	C139.263535,32.831017 137.371307,33.805302 135.059784,34.528389 
	C132.133286,28.143778 129.922058,21.764168 122.995346,19.176992 
	C123.453064,25.760090 123.876152,31.844963 124.299232,37.929840 
z"/>
<path fill="#96C676" opacity="1.000000" stroke="none" 
	d="
M61.631645,57.208321 
	C63.686691,56.659805 65.452133,56.320011 67.605484,55.956604 
	C66.363518,57.422825 64.598206,58.791142 63.130714,60.426682 
	C59.596783,64.365311 56.288002,68.507141 52.724861,72.418015 
	C49.790169,75.639107 46.194653,78.342430 43.694721,81.847725 
	C41.813923,84.484894 40.757977,87.938583 40.100060,91.183922 
	C34.292103,119.833069 28.659035,148.517670 22.943142,177.185562 
	C22.825548,177.775345 22.334515,178.290680 21.679853,178.955597 
	C23.323866,162.947800 25.241577,146.816940 27.304089,130.704620 
	C29.790295,111.282433 32.543934,91.893143 34.852901,72.450546 
	C35.424206,67.639900 37.187260,65.041496 41.988464,63.772606 
	C48.541821,62.040646 54.900124,59.570644 61.631645,57.208321 
z"/>
<path fill="#FEFEFD" opacity="1.000000" stroke="none" 
	d="
M82.115692,109.367416 
	C79.911835,114.125313 81.728943,117.569527 84.969803,120.343887 
	C88.885834,123.696228 93.064468,126.741631 97.126396,129.923767 
	C109.492821,139.611679 112.614822,152.333755 108.741982,166.980347 
	C104.384544,183.459579 89.131073,192.138885 71.274864,188.644318 
	C63.470631,187.116989 56.259159,184.112320 50.414017,178.622086 
	C49.206722,177.488098 48.490082,174.863068 48.850338,173.209091 
	C49.964622,168.093369 51.707859,163.114624 53.096085,158.454666 
	C58.832191,161.204712 64.075027,164.021973 69.558022,166.247574 
	C73.690704,167.925064 78.027763,167.545380 80.766968,163.518555 
	C83.635071,159.302216 82.814293,154.777771 79.799240,150.989365 
	C77.649696,148.288483 75.038620,145.787689 72.197281,143.831070 
	C49.249672,128.028732 58.750057,97.410690 75.064423,87.011597 
	C88.747643,78.289658 103.298546,77.355705 119.067749,82.261421 
	C116.275673,90.636353 113.621498,98.597633 111.333199,105.461472 
	C103.893593,104.843018 97.061867,103.717522 90.284943,103.984276 
	C87.548164,104.092003 84.931190,107.243568 82.115692,109.367416 
z"/>
<path fill="#FAFCFA" opacity="1.000000" stroke="none" 
	d="
M70.647964,54.848629 
	C73.577003,43.199261 78.221260,32.096813 86.262749,22.792835 
	C91.991058,16.165205 98.902824,11.668276 109.647110,13.235111 
	C95.881012,21.645790 90.481667,34.260841 87.267227,48.584049 
	C81.818977,50.894264 76.411537,52.833504 70.647964,54.848629 
z"/>
<path fill="#FBFCFA" opacity="1.000000" stroke="none" 
	d="
M96.436325,46.912357 
	C98.228180,35.781658 103.529869,26.725475 115.013031,19.755966 
	C115.754883,26.904081 116.385765,32.982948 117.056290,39.517143 
	C110.331917,42.264702 103.567902,44.556934 96.436325,46.912357 
z"/>
<path fill="#F6F9F5" opacity="1.000000" stroke="none" 
	d="
M124.662460,37.891731 
	C123.876152,31.844963 123.453064,25.760090 122.995346,19.176992 
	C129.922058,21.764168 132.133286,28.143778 134.706451,34.620300 
	C131.523483,35.926811 128.274582,36.890217 124.662460,37.891731 
z"/>
</svg>